<svg width="20" height="20" viewBox="0 0 20 20" fill="none" xmlns="http://www.w3.org/2000/svg">
<path d="M17.9424 14.6195C18.3869 13.7386 18.6108 12.7629 18.5949 11.7763C18.579 10.7898 18.3238 9.82183 17.8512 8.9557C17.3785 8.08956 16.7027 7.35113 15.8817 6.80389C15.0606 6.25665 14.119 5.91696 13.1377 5.81401C12.8262 5.05561 12.3648 4.36787 11.7812 3.79198C11.1976 3.21608 10.5039 2.76388 9.74139 2.46244C8.97892 2.161 8.16346 2.01653 7.34384 2.03767C6.52422 2.05881 5.7173 2.24514 4.97139 2.58548C4.22547 2.92583 3.55591 3.4132 3.0028 4.01841C2.44968 4.62363 2.02438 5.33424 1.75237 6.10769C1.48036 6.88115 1.36722 7.70154 1.41974 8.51974C1.47226 9.33795 1.68936 10.1371 2.05802 10.8695L1.44318 13.0234C1.39737 13.1841 1.39534 13.3541 1.43731 13.5158C1.47927 13.6776 1.5637 13.8252 1.68185 13.9433C1.8 14.0615 1.94759 14.1459 2.10933 14.1879C2.27107 14.2298 2.44108 14.2278 2.60177 14.182L4.75568 13.5671C5.4143 13.8981 6.12733 14.1072 6.86037 14.1843C7.17922 14.962 7.6554 15.6653 8.25901 16.2502C8.86261 16.835 9.58061 17.2888 10.3679 17.583C11.1552 17.8772 11.9949 18.0054 12.8341 17.9597C13.6734 17.9139 14.4941 17.6952 15.2447 17.3171L17.3986 17.932C17.5593 17.9778 17.7294 17.9798 17.8911 17.9379C18.0528 17.8959 18.2004 17.8115 18.3186 17.6933C18.4367 17.5752 18.5212 17.4276 18.5631 17.2658C18.6051 17.1041 18.6031 16.9341 18.5572 16.7734L17.9424 14.6195ZM4.80724 12.596C4.76363 12.5958 4.72022 12.6019 4.67834 12.614L2.34396 13.2812L3.01037 10.9476C3.0444 10.8291 3.03037 10.7019 2.9713 10.5937C2.37862 9.5046 2.19824 8.2384 2.46322 7.02712C2.72819 5.81584 3.42077 4.7406 4.41405 3.99844C5.40733 3.25628 6.63478 2.89689 7.87149 2.98614C9.1082 3.07539 10.2713 3.60729 11.1478 4.48438C12.0242 5.36147 12.5552 6.525 12.6435 7.76178C12.7318 8.99855 12.3715 10.2257 11.6286 11.2184C10.8857 12.2112 9.80991 12.9029 8.59843 13.167C7.38695 13.431 6.12089 13.2497 5.03224 12.6562C4.96337 12.6178 4.88606 12.5972 4.80724 12.596ZM16.9893 14.6968L17.6565 17.0312L15.3229 16.3648C15.2044 16.3308 15.0772 16.3448 14.969 16.4039C14.3628 16.7343 13.6963 16.9397 13.0093 17.0077C12.3222 17.0758 11.6285 17.0052 10.9692 16.8001C10.3099 16.595 9.69859 16.2595 9.1714 15.8137C8.64422 15.3679 8.21194 14.8207 7.90021 14.2046C8.77672 14.1476 9.63051 13.9016 10.4029 13.4834C11.1754 13.0652 11.8482 12.4849 12.3752 11.7822C12.9021 11.0794 13.2708 10.271 13.4558 9.41233C13.6408 8.55368 13.6379 7.66515 13.4471 6.80776C14.2472 6.95675 15.0007 7.29304 15.646 7.78912C16.2912 8.28519 16.8098 8.92697 17.1594 9.66194C17.5091 10.3969 17.6797 11.2042 17.6575 12.0178C17.6352 12.8314 17.4207 13.6281 17.0315 14.3429C16.9713 14.4507 16.9562 14.5779 16.9893 14.6968Z" fill="black"/>
</svg>
