<svg width="22" height="22" viewBox="0 0 22 22" fill="none" xmlns="http://www.w3.org/2000/svg">
<path d="M6.41667 10.083H8.25V11.9163H6.41667V10.083ZM19.25 5.49967V18.333C19.25 19.3413 18.425 20.1663 17.4167 20.1663H4.58333C3.56583 20.1663 2.75 19.3413 2.75 18.333L2.75917 5.49967C2.75917 4.49134 3.56583 3.66634 4.58333 3.66634H5.5V1.83301H7.33333V3.66634H14.6667V1.83301H16.5V3.66634H17.4167C18.425 3.66634 19.25 4.49134 19.25 5.49967ZM4.58333 7.33301H17.4167V5.49967H4.58333V7.33301ZM17.4167 18.333V9.16634H4.58333V18.333H17.4167ZM13.75 11.9163H15.5833V10.083H13.75V11.9163ZM10.0833 11.9163H11.9167V10.083H10.0833V11.9163Z" fill="#0B0B0B"/>
</svg>
