<svg width="20" height="20" viewBox="0 0 20 20" fill="none" xmlns="http://www.w3.org/2000/svg">
<path d="M12.9422 15.8077C13.0003 15.8657 13.0463 15.9347 13.0777 16.0105C13.1092 16.0864 13.1254 16.1677 13.1254 16.2499C13.1254 16.332 13.1092 16.4133 13.0777 16.4892C13.0463 16.565 13.0003 16.634 12.9422 16.692C12.8841 16.7501 12.8152 16.7962 12.7393 16.8276C12.6634 16.859 12.5821 16.8752 12.5 16.8752C12.4179 16.8752 12.3366 16.859 12.2607 16.8276C12.1848 16.7962 12.1159 16.7501 12.0578 16.692L5.80782 10.442C5.74971 10.384 5.70361 10.3151 5.67215 10.2392C5.6407 10.1633 5.62451 10.082 5.62451 9.99986C5.62451 9.91772 5.6407 9.8364 5.67215 9.76052C5.70361 9.68465 5.74971 9.61572 5.80782 9.55767L12.0578 3.30767C12.1751 3.1904 12.3342 3.12451 12.5 3.12451C12.6659 3.12451 12.8249 3.1904 12.9422 3.30767C13.0595 3.42495 13.1254 3.58401 13.1254 3.74986C13.1254 3.91571 13.0595 4.07477 12.9422 4.19205L7.1336 9.99986L12.9422 15.8077Z" fill="black"/>
</svg>
