<svg width="24" height="24" viewBox="0 0 24 24" fill="none" xmlns="http://www.w3.org/2000/svg">
<path d="M12.0001 2.3999C10.7271 2.3999 9.50616 2.90562 8.60598 3.80579C7.70581 4.70596 7.2001 5.92686 7.2001 7.1999C7.2001 8.47294 7.70581 9.69384 8.60598 10.594C9.50616 11.4942 10.7271 11.9999 12.0001 11.9999C13.2731 11.9999 14.494 11.4942 15.3942 10.594C16.2944 9.69384 16.8001 8.47294 16.8001 7.1999C16.8001 5.92686 16.2944 4.70596 15.3942 3.80579C14.494 2.90562 13.2731 2.3999 12.0001 2.3999ZM8.4001 7.1999C8.4001 6.24512 8.77938 5.32945 9.45451 4.65432C10.1296 3.97919 11.0453 3.5999 12.0001 3.5999C12.9549 3.5999 13.8706 3.97919 14.5457 4.65432C15.2208 5.32945 15.6001 6.24512 15.6001 7.1999C15.6001 8.15468 15.2208 9.07036 14.5457 9.74549C13.8706 10.4206 12.9549 10.7999 12.0001 10.7999C11.0453 10.7999 10.1296 10.4206 9.45451 9.74549C8.77938 9.07036 8.4001 8.15468 8.4001 7.1999ZM6.0109 13.1999C5.69486 13.1986 5.38168 13.2598 5.08933 13.3798C4.79697 13.4998 4.53118 13.6764 4.30721 13.8994C4.08323 14.1223 3.90548 14.3873 3.78414 14.6791C3.6628 14.971 3.60025 15.2839 3.6001 15.5999C3.6001 17.6291 4.5997 19.1591 6.1621 20.1563C7.7005 21.1367 9.7741 21.5999 12.0001 21.5999C14.2261 21.5999 16.2997 21.1367 17.8381 20.1563C19.4005 19.1603 20.4001 17.6279 20.4001 15.5999C20.4001 14.9634 20.1472 14.3529 19.6972 13.9028C19.2471 13.4528 18.6366 13.1999 18.0001 13.1999H6.0109ZM4.8001 15.5999C4.8001 14.9363 5.3377 14.3999 6.0109 14.3999H18.0001C18.3184 14.3999 18.6236 14.5263 18.8486 14.7514C19.0737 14.9764 19.2001 15.2816 19.2001 15.5999C19.2001 17.1707 18.4537 18.3407 17.1925 19.1435C15.9085 19.9631 14.0821 20.3999 12.0001 20.3999C9.9181 20.3999 8.0917 19.9631 6.8077 19.1435C5.5477 18.3395 4.8001 17.1719 4.8001 15.5999Z" fill="black"/>
</svg>
