<svg width="22" height="22" viewBox="0 0 22 22" fill="none" xmlns="http://www.w3.org/2000/svg">
<path d="M11 5.40866C12.0633 5.40866 12.925 6.27033 12.925 7.33366C12.925 8.39699 12.0633 9.25866 11 9.25866C9.93663 9.25866 9.07496 8.39699 9.07496 7.33366C9.07496 6.27033 9.93663 5.40866 11 5.40866ZM11 13.6587C13.7225 13.6587 16.5916 14.997 16.5916 15.5837V16.592H5.40829V15.5837C5.40829 14.997 8.27746 13.6587 11 13.6587ZM11 3.66699C8.97413 3.66699 7.33329 5.30783 7.33329 7.33366C7.33329 9.35949 8.97413 11.0003 11 11.0003C13.0258 11.0003 14.6666 9.35949 14.6666 7.33366C14.6666 5.30783 13.0258 3.66699 11 3.66699ZM11 11.917C8.55246 11.917 3.66663 13.1453 3.66663 15.5837V18.3337H18.3333V15.5837C18.3333 13.1453 13.4475 11.917 11 11.917Z" fill="#0B0B0B"/>
</svg>
